PathFileType	4	(X/Y/Z)	Patient4_TMGait_0pt6_02_left_42.trc.trc
DataRate	CameraRate	NumFrames	NumMarkers	Units	OrigDataRate	OrigDataStartFrame	OrigNumFrames
82.840236686391	82.840236686391	4	33	mm	82.840236686391	106	       141
Frame#	Time	Sacral			L.Shoulder			Chest			R.Shoulder			Neck			R.ASIS			L.ASIS			R.Thigh.Superior			R.Thigh.Lateral			R.Thigh.Inferior			R.Patella			L.Thigh.Superior			L.Thigh.Lateral			L.Thigh.Inferior			L.Patella			L.Shank.Superior			L.Shank.Lateral			L.Shank.Inferior			R.Shank.Superior			R.Shank.Lateral			R.Shank.Inferior			R.Heel			R.Midfoot.Superior			R.Midfoot.Lateral			R.Toe			L.Heel			L.Midfoot.Lateral			L.Midfoot.Superior			L.Toe			L.Elbow			L.Wrist			R.Elbow			R.Wrist			
		X1	Y1	Z1	X2	Y2	Z2	X3	Y3	Z3	X4	Y4	Z4	X5	Y5	Z5	X6	Y6	Z6	X7	Y7	Z7	X8	Y8	Z8	X9	Y9	Z9	X10	Y10	Z10	X11	Y11	Z11	X12	Y12	Z12	X13	Y13	Z13	X14	Y14	Z14	X15	Y15	Z15	X16	Y16	Z16	X17	Y17	Z17	X18	Y18	Z18	X19	Y19	Z19	X20	Y20	Z20	X21	Y21	Z21	X22	Y22	Z22	X23	Y23	Z23	X24	Y24	Z24	X25	Y25	Z25	X26	Y26	Z26	X27	Y27	Z27	X28	Y28	Z28	X29	Y29	Z29	X30	Y30	Z30	X31	Y31	Z31	X32	Y32	Z32	X33	Y33	Z33	

106	52.557500000000	866.850458433989	1022.392475398334	542.364692519840	1067.931645692727	1440.891424145814	356.987200265090	1177.642968016006	1356.386267633154	504.841302414479	1119.030991963723	1435.379997215782	685.519460524023	1087.484505444856	1496.287767989427	508.606963031586	1097.089414996365	943.375713377282	641.587259050689	1063.477392504238	966.981605444109	369.738076008534	1120.152030096728	739.811931178870	613.410040800803	1030.489945644657	637.029717298402	671.985060610300	1103.235296474231	580.467080822871	591.002994852471	1096.052072498181	494.710454279930	595.604694325739	1148.897108212131	800.289632020770	389.837025475205	1110.662868848634	671.773818314743	310.450944528237	1222.758203939975	617.129104923505	363.683643963913	1245.173521891099	531.307421831947	353.926115518782	1192.352186575044	456.575439288186	351.245025854314	1062.207019893814	383.166586185628	309.645296141688	1083.582234808237	255.063794325018	364.795511788436	1066.636105652339	407.555438049284	600.699574532735	991.036692127916	304.678936380213	658.574375981454	1033.759280257009	210.150608704460	593.837163848514	896.909661034278	46.256227643939	555.654957310703	1069.808416412115	97.759101290775	593.321773686775	980.158932748768	37.507726817049	630.183143502426	1188.582151776225	40.768111923992	619.891111875202	916.725985502948	143.902851269453	411.424288071334	979.918716731155	115.252469637606	327.853025425357	1079.700542752483	151.406565108136	344.220767888441	1183.155500502856	64.402070150991	311.180628391734	954.623706883570	1101.178664613977	254.617208900266	947.157640078747	840.602423550079	244.192599892718	1211.567975465875	1101.311904118089	802.152854586057	1425.182968988604	970.264802074279	728.231918242352	
107	52.569571428571	866.075414906569	1022.547642896367	542.886883730650	1066.229466317619	1441.076501135044	357.432971853828	1176.751704838299	1356.406872610461	504.522587934608	1119.125927894376	1435.168167734014	685.561713532571	1086.524429838047	1496.235924927998	509.030966288001	1096.426915037875	943.145027752355	641.261779765684	1062.343319654910	967.026481477073	369.606330899597	1116.867556519763	738.857732199198	612.280691681207	1026.522017048700	636.856249509594	671.979381099263	1097.884941886442	579.474387859040	590.636094852160	1089.748511825274	494.155215990116	595.310210009557	1148.114187429081	801.483735889142	390.207261095888	1111.506819526993	672.606471468370	310.599243693167	1223.415405282510	618.956564527856	364.824793011954	1247.457357801281	534.523932245284	354.854085783774	1197.917131477206	458.801899089790	351.458063446334	1072.170227585376	378.864984036071	308.765260160809	1100.265662817657	251.577781087432	363.379204889569	1060.102123799618	407.174640148768	600.480380205408	984.403682654634	304.507231446476	658.573820019507	1026.689405562216	209.893608220219	593.676624183300	889.552502008780	46.037707731626	555.735858104816	1062.414780257282	97.716814995337	593.302214288100	972.810920875528	37.450764839984	630.265888642523	1181.207099825124	40.831688884750	619.883559860380	939.645691072672	131.376091502320	408.746617655381	1004.523373486308	106.604065001894	325.307974937470	1102.194892767537	147.792164993948	342.312879380910	1210.173881148305	66.483577308352	309.312340119217	946.461143310746	1103.772937272272	255.292561479785	931.039467257247	843.709620091043	245.954861897098	1219.706882609262	1104.278825954489	800.733633333879	1440.180077398040	989.545596735850	720.905933739100	
108	52.581642857143	865.377242864055	1022.601464571242	543.291195221382	1064.596764514329	1441.167594501993	357.749383777815	1175.930247643300	1356.296374298411	504.061350038237	1119.268440595006	1434.780672720597	685.459837948115	1085.627717673761	1496.049423609695	509.332781485654	1095.821490550234	942.825737535901	640.798009449413	1061.262696628400	966.869745119816	369.320499278529	1113.515298163421	737.816881908842	611.212164571403	1022.371205262632	636.651456304768	671.980125246857	1092.318896602740	578.426183644412	590.319483422003	1083.227310119006	493.566615772289	595.069201960648	1147.061460713319	802.201375883951	390.733539435675	1112.038859039787	673.057067246064	310.748676510716	1223.474220938494	620.145193530780	366.211620524179	1249.064284406077	537.235937074277	355.989720100327	1202.901996181709	460.744779309638	351.811387665689	1082.142833012900	374.378081317310	307.756192501256	1116.956768949023	248.324309526901	361.970149859835	1053.365782489804	406.791415273084	600.301642166125	977.592987120473	304.283376021351	658.579537288679	1019.502646445549	209.615359597806	593.518430505153	882.182493644149	45.758782896715	555.801562997196	1054.983425872465	97.665091140500	593.256350224229	965.440376099388	37.380071482596	630.343517992677	1173.817323836930	40.925621766751	619.858580060672	963.149042062709	119.281744934832	405.802557826570	1029.702445715263	98.494701459797	322.669548000845	1124.907537136304	144.673539280629	340.494551251526	1237.217520149369	69.349163347951	307.853191542738	938.475345961441	1106.484290488560	255.717959957577	916.159918632231	847.040941137731	247.660446833700	1227.385665632443	1107.200583490255	799.126490207258	1453.459867374533	1009.479100352744	713.477256053535	
109	52.593714285714	864.760696693236	1022.542281103248	543.557969121320	1063.059119659876	1441.155685497459	357.928753723888	1175.183831164321	1356.042990448626	503.465454314015	1119.446180400608	1434.214038357495	685.214270036826	1084.807991069542	1495.724889828331	509.507246490820	1095.276781504408	942.436261875526	640.235158380755	1060.254346082328	966.496413041457	368.890547137887	1110.139952765457	736.710914987842	610.286811404294	1018.067155030167	636.430765136995	671.996330743940	1086.610904885606	577.348681792739	590.091265099113	1076.572115353861	492.953772300075	594.907779338762	1145.768388340413	802.434177156833	391.385077758820	1112.247513844572	673.116005457972	310.862628691064	1222.978293248355	620.691734528982	367.735478860962	1250.025264976171	539.429225707775	357.258455302635	1207.303382679052	462.401523570789	352.273110847934	1092.067750543363	369.804261596454	306.632044598373	1133.496959837439	245.410405205273	360.617853525523	1046.491689276903	406.417213729676	600.181839763010	970.648586839090	304.029838312353	658.602823309489	1012.235639728435	209.328715152996	593.377369328396	874.804323031108	45.445148920071	555.853572137030	1047.527673933268	97.606306237574	593.193692820291	958.053460838770	37.301710660960	630.415990406030	1166.421737559371	41.037926056466	619.824613366598	986.994254422341	107.873033793351	402.705495981653	1055.199342768153	91.098262832474	320.054088528683	1147.611645890145	142.157435558959	338.839635195561	1263.994751698714	73.029113644630	306.898536292430	930.732265057275	1109.263703591678	255.943776840502	902.458977756086	850.470674762376	249.305254448944	1234.678830231624	1110.048961926813	797.319349362739	1464.992713120348	1029.865741942851	706.008562107493	
